<svg version="1.0" xmlns="http://www.w3.org/2000/svg" fill="currentColor"  width="28" height="28" viewBox="0 0 512 512" preserveAspectRatio="xMidYMid meet">
    <g transform="translate(0.000000,512.000000) scale(0.100000,-0.100000)"  stroke="none">
        <path d="M1510 5104 c-277 -75 -367 -434 -158 -630 27 -25 74 -57 106 -72 49 -23 70 -27 152 -27 82 0 103 4 152 27 31 14 77 45 102 68 216 199 123 561 -162 635 -69 18 -121 18 -192 -1z"/>
        <path d="M3550 5105 c-222 -63 -336 -306 -241 -520 30 -68 111 -148 184 -181 54 -26 73 -29 157 -29 82 0 103 4 152 27 79 37 142 98 181 177 30 61 32 73 32 166 0 87 -3 107 -26 155 -76 161 -270 252 -439 205z"/>
        <path d="M1103 4236 c-61 -20 -106 -50 -162 -112 -63 -69 -110 -153 -151 -269 -69 -199 -340 -1100 -340 -1133 0 -85 78 -175 164 -187 80 -12 167 29 201 95 12 24 79 236 286 913 l30 97 41 0 c40 0 40 -1 35 -29 -4 -17 -135 -451 -292 -966 -158 -514 -285 -943 -283 -953 3 -15 25 -18 223 -22 l220 -5 5 -740 c5 -706 6 -742 24 -779 89 -179 335 -194 441 -26 42 67 45 117 45 852 l0 699 38 -3 37 -3 5 -740 c6 -820 2 -776 72 -847 126 -125 331 -91 404 67 l24 50 0 722 c0 397 3 728 6 737 5 14 34 16 219 16 162 0 215 3 223 13 8 10 -65 263 -283 977 -162 530 -295 967 -295 972 0 5 19 8 42 6 l42 -3 196 -640 c108 -352 204 -653 212 -670 68 -129 248 -139 332 -18 l29 42 63 628 c35 345 63 634 64 641 0 7 15 12 40 12 l40 0 2 -1722 3 -1723 22 -40 c49 -92 127 -139 228 -139 80 0 129 20 182 76 73 75 68 -3 71 1141 l2 1028 38 -3 37 -3 5 -1030 c5 -965 6 -1032 23 -1066 80 -161 296 -196 412 -67 76 84 70 -84 73 1831 l2 1718 38 -3 37 -3 5 -635 c4 -566 7 -638 22 -665 78 -143 281 -137 349 10 18 38 19 81 19 761 0 447 -4 742 -10 775 -32 169 -156 309 -319 359 -60 19 -95 20 -695 20 -685 0 -672 1 -777 -57 -103 -56 -205 -204 -229 -333 -10 -50 -40 -350 -40 -394 0 -11 -2 -17 -5 -14 -3 3 -37 108 -75 234 -39 125 -88 264 -109 309 -49 101 -127 185 -208 223 l-58 27 -500 2 c-392 2 -509 -1 -542 -11z"/>
    </g>
</svg>