<svg version="1.0" xmlns="http://www.w3.org/2000/svg" fill="currentColor" width="28"  height="28" viewBox="0 0 240 512" preserveAspectRatio="xMidYMid meet">
  <g transform="translate(0.000000,512.000000) scale(0.100000,-0.100000)"  stroke="none">
      <path d="M1103 5105 c-173 -47 -283 -187 -283 -361 0 -204 168 -374 370 -374 69 0 167 34 224 77 184 141 197 405 29 568 -46 45 -94 70 -170 90 -69 18 -102 18 -170 0z"/>
      <path d="M518 4234 c-155 -37 -283 -165 -329 -329 -11 -41 -14 -186 -14 -802 l0 -751 30 -43 c80 -113 240 -113 320 0 l30 43 3 639 2 639 27 6 c14 4 33 2 42 -3 15 -9 16 -170 21 -1734 l5 -1724 28 -47 c44 -76 131 -128 213 -128 53 0 137 37 176 77 78 80 73 -5 76 1145 l2 1028 40 0 40 0 2 -1028 c3 -1150 -2 -1065 76 -1145 39 -40 123 -77 176 -77 82 0 169 52 213 128 l28 47 5 1724 c5 1564 6 1725 21 1734 9 5 28 7 42 3 l27 -6 2 -639 3 -639 30 -43 c80 -113 240 -113 320 0 l30 43 0 751 c0 616 -3 761 -14 802 -47 167 -174 292 -334 330 -88 21 -1252 21 -1339 -1z"/>
  </g>
</svg>